PathFileType	4	(X/Y/Z)	C:\Users\Basilio\Documents\Thesis Gigler\squatting_fais\c3dfiles\041\SLS_pre_front2\markers_experimental.trc
DataRate	CameraRate	NumFrames	NumMarkers	Units	OrigDataRate	OrigDataStartFrame	OrigNumFrames
200.000000	200.000000	4	62	mm	200.000000	0	1425
Frame#	Time	FHD			LBHD			RBHD			C7			T10			CLAV			LSHO			LUUPA			LMUPA			LDUPA			LLEP			LMEP			LRAD			LUL			LRFIN			RSHO			RUPA1			RMUPA			RDUPA			RLEP			RMEP			RRAD			RUL			RUFIN			LASI			RASI			USACR			LSACR			RSACR			LTHI1			LTHI2			LTHI3			LTHI4			LLFC			LMFC			LTIB1			LTIB2			LTIB3			LTIB4			LLMAL			LMMAL			LHEE			LMT1			LMT2			LMT5			RTHI			RTHI2			RTHI3			RTHI4			RLFC			RMFC			RTIB1			RTIB2			RTIB3			RTIB4			RLMAL			RMMAL			RHEE			RMT1			RMT2			RMT5			*61			
		X1	Y1	Z1	X2	Y2	Z2	X3	Y3	Z3	X4	Y4	Z4	X5	Y5	Z5	X6	Y6	Z6	X7	Y7	Z7	X8	Y8	Z8	X9	Y9	Z9	X10	Y10	Z10	X11	Y11	Z11	X12	Y12	Z12	X13	Y13	Z13	X14	Y14	Z14	X15	Y15	Z15	X16	Y16	Z16	X17	Y17	Z17	X18	Y18	Z18	X19	Y19	Z19	X20	Y20	Z20	X21	Y21	Z21	X22	Y22	Z22	X23	Y23	Z23	X24	Y24	Z24	X25	Y25	Z25	X26	Y26	Z26	X27	Y27	Z27	X28	Y28	Z28	X29	Y29	Z29	X30	Y30	Z30	X31	Y31	Z31	X32	Y32	Z32	X33	Y33	Z33	X34	Y34	Z34	X35	Y35	Z35	X36	Y36	Z36	X37	Y37	Z37	X38	Y38	Z38	X39	Y39	Z39	X40	Y40	Z40	X41	Y41	Z41	X42	Y42	Z42	X43	Y43	Z43	X44	Y44	Z44	X45	Y45	Z45	X46	Y46	Z46	X47	Y47	Z47	X48	Y48	Z48	X49	Y49	Z49	X50	Y50	Z50	X51	Y51	Z51	X52	Y52	Z52	X53	Y53	Z53	X54	Y54	Z54	X55	Y55	Z55	X56	Y56	Z56	X57	Y57	Z57	X58	Y58	Z58	X59	Y59	Z59	X60	Y60	Z60	X61	Y61	Z61	X62	Y62	Z62	

1	0	-229.4007110595704	1785.739868164063	-979.482116699219	-403.3985595703126	1709.942260742188	-1053.43017578125	-380.5547485351563	1710.346069335938	-902.0300903320315	-430.3034667968751	1559.167236328125	-994.6284179687502	-437.4295349121095	1240.461547851563	-983.1118774414065	-269.0027465820313	1504.533569335938	-998.0598144531252	-355.4541320800782	1544.953125	-1169.82861328125	-369.1841430664063	1358.515869140625	-1265.250732421875	-328.4278869628907	1331.777465820313	-1262.286987304688	-368.6500549316407	1293.156127929688	-1288.643432617188	-365.3075256347657	1245.296875	-1297.670532226563	-369.6296386718751	1201.6416015625	-1223.235717773438	-203.428695678711	1024.76904296875	-1304.58984375	-256.5424499511719	1006.898559570313	-1352.526977539063	-148.4446716308594	1002.031494140625	-1350.743041992188	-336.1051635742188	1549.467651367188	-825.796081542969	-377.2848205566407	1338.620849609375	-729.0578002929689	-327.9075012207032	1328.697387695313	-732.8580322265626	-348.7281188964844	1275.301635742188	-716.7044677734376	-340.6464843750001	1231.479858398438	-712.0394897460939	-366.7953491210938	1205.17919921875	-793.7322998046877	-205.0932006835938	1005.706909179688	-758.3115234375001	-262.9979858398438	987.1608886718752	-710.5458374023439	-162.2953796386719	943.700134277344	-735.4694824218751	-251.4321746826172	1063.296630859375	-1093.36767578125	-260.1187133789063	1060.819580078125	-864.8157348632815	-436.6975402832032	1127.56787109375	-984.0782470703127	-450.168426513672	1100.802490234375	-1011.211181640625	-452.4853515625001	1100.947509765625	-956.7437744140627	-358.7801513671876	851.8718261718752	-1161.93798828125	-322.0589599609376	775.6526489257815	-1153.163452148438	-274.6116027832032	780.5991210937502	-1141.441528320313	-349.1236877441407	722.2969970703126	-1144.123779296875	-330.5486755371094	542.0953979492189	-1123.804565429688	-330.5546264648438	525.3296508789064	-1003.694946289063	-309.2063598632813	350.2970886230469	-1063.1865234375	-354.5507202148438	307.4004821777344	-1128.723754882813	-318.1407165527344	303.1385803222657	-1099.953979492188	-325.2341918945313	225.2594451904297	-1067.116943359375	-384.6628417968751	133.9910736083985	-1105.795532226563	-347.7943725585938	138.6150512695313	-1024.571899414063	-449.9353027343751	118.1561813354492	-1063.91845703125	-242.7560119628907	64.01696014404298	-1039.286987304688	-237.1963348388672	58.3871536254883	-1085.181762695313	-285.6050415039063	43.96748733520509	-1136.9345703125	-357.4687194824219	795.8275146484377	-786.1865844726565	-314.8491516113282	745.4726562500001	-779.857604980469	-282.0279235839844	750.1718139648439	-783.0501098632815	-334.3356323242188	663.9801025390626	-791.760437011719	-320.8799743652344	540.3334350585939	-784.5859985351565	-298.9945068359376	515.5817871093751	-900.0344238281252	-295.1889648437501	370.5628051757813	-784.226989746094	-382.6423645019532	301.8753967285157	-767.3364257812501	-336.6835632324219	295.5821838378907	-766.7910156250001	-317.3378906250001	244.646713256836	-793.0423583984377	-383.1361999511719	133.9349060058594	-774.5683593750002	-353.8586120605469	146.705810546875	-852.750671386719	-445.1064453125001	113.9439849853516	-822.7799072265627	-238.5134735107422	57.78547286987306	-843.2437133789065	-232.8901367187501	56.28972625732423	-790.1983642578127	-277.7277526855469	46.29646682739259	-739.5137939453126	-4216.505371093751	853.1636352539065	-3944.735595703126	
2	0.005	-230.2687530517579	1786.0927734375	-980.2669677734377	-403.8421936035157	1709.85400390625	-1054.145263671875	-380.9544372558594	1710.388061523438	-902.7117309570315	-430.6874084472657	1559.037963867188	-995.4281005859377	-437.7668762207032	1240.44189453125	-983.7517089843752	-269.3738098144532	1504.529663085938	-998.691101074219	-355.6097717285157	1544.8056640625	-1170.504028320313	-368.7844238281251	1358.391357421875	-1266.089599609375	-328.0838928222657	1331.698364257813	-1262.829345703125	-368.1317749023438	1293.023193359375	-1289.33935546875	-364.6145629882813	1245.278686523438	-1298.503173828125	-369.3433227539063	1201.46728515625	-1223.920654296875	-202.0774078369141	1024.9287109375	-1304.807983398438	-254.9537200927735	1007.010925292969	-1353.141479492188	-147.2988433837891	1005.146606445313	-1351.564331054688	-336.7409667968751	1549.326416015625	-826.5141601562502	-377.3942565917969	1338.337524414063	-729.8981933593751	-328.0238647460938	1328.580932617188	-733.5992431640626	-348.4367370605469	1275.081176757813	-717.6335449218751	-340.3851318359376	1231.302734375	-712.8167724609376	-366.5870056152344	1205.005249023438	-794.567565917969	-204.6077728271485	1005.688781738281	-759.2843627929689	-262.3505249023438	987.1871337890627	-711.6640014648439	-161.6094512939453	943.9455566406252	-736.5615844726564	-251.6897125244141	1063.296142578125	-1093.892944335938	-260.7857666015626	1060.68505859375	-865.3092041015627	-437.0232849121095	1127.354858398438	-984.7617797851565	-450.3786621093751	1100.61767578125	-1011.906433105469	-452.848602294922	1100.785278320313	-957.4652099609377	-359.0129699707032	851.8393554687502	-1162.421630859375	-322.2432250976563	775.650085449219	-1153.624755859375	-274.7873840332032	780.592468261719	-1141.808227539063	-349.3358154296876	722.3195190429689	-1144.661010742188	-330.8597106933594	542.0339965820314	-1124.212036132813	-330.8704528808594	525.3856201171876	-1004.080932617188	-309.4901428222657	350.2105102539063	-1063.461181640625	-354.6226501464844	307.3509826660157	-1128.888427734375	-318.3016052246094	303.1053161621094	-1100.157104492188	-325.2908630371094	225.2823944091797	-1067.227294921875	-384.6628417968751	133.8865966796875	-1105.862182617188	-347.8228149414063	138.6145172119141	-1024.580322265625	-449.904022216797	118.0820846557617	-1063.95703125	-242.7959899902344	63.98510360717775	-1039.31787109375	-237.1377105712891	58.42150115966798	-1085.170532226563	-285.5953674316407	43.78568649291993	-1136.96435546875	-357.5254821777344	795.5605468750002	-786.7740478515627	-314.8313598632813	745.4533081054689	-780.1726074218752	-282.0159301757813	750.1260375976564	-783.5354003906252	-333.9285278320313	663.7673950195314	-792.3150634765627	-320.5932922363282	540.3347778320314	-784.872253417969	-298.5458374023438	515.4925537109376	-900.2746582031252	-295.2735595703126	370.7153625488282	-784.463806152344	-382.3530883789063	301.9738464355469	-767.5771484375001	-336.5388793945313	295.6379089355469	-766.9614868164064	-317.2787475585938	244.6516723632813	-793.132995605469	-383.1197509765626	133.9970703125	-774.680847167969	-353.8302612304688	146.7096710205078	-852.852233886719	-445.0929260253907	113.9438247680664	-822.8327636718752	-238.5045013427735	57.82784652709962	-843.284362792969	-232.8601989746094	56.37601852416994	-790.2607421875002	-277.7065124511719	46.32796859741212	-739.5486450195314	-4216.510742187501	853.1064453125002	-3944.728759765626	
3	0.01	-230.4090118408204	1785.6689453125	-980.7183227539065	-404.2230834960939	1709.71826171875	-1054.777099609375	-381.5771789550782	1710.202392578125	-903.4824218750002	-431.010955810547	1558.949829101563	-996.0364379882815	-438.2961425781251	1240.407836914063	-984.513122558594	-269.7032470703126	1504.374877929688	-999.400573730469	-355.7253723144532	1544.672729492188	-1171.065185546875	-368.3801574707032	1358.303344726563	-1266.793212890625	-327.6479492187501	1331.644897460938	-1263.338989257813	-367.4656982421876	1292.921508789063	-1290.1064453125	-363.9982299804688	1245.253295898438	-1299.242797851563	-368.8706970214844	1201.286987304688	-1224.904418945313	-201.1845245361329	1025.231323242188	-1304.99658203125	-253.7631072998047	1007.239135742188	-1353.859619140625	-146.3623046875	1007.954223632813	-1352.348876953125	-337.4615783691407	1549.201904296875	-827.1337890625002	-377.5040893554688	1338.037841796875	-730.6864013671876	-328.2667541503907	1328.181518554688	-734.8430786132814	-348.2428588867188	1274.868896484375	-718.5078125000001	-340.0967102050782	1231.0869140625	-713.6481323242189	-366.3420715332032	1204.848022460938	-795.3411865234377	-203.9883270263672	1005.801574707031	-760.3912353515626	-261.5592956542969	987.1970214843752	-712.6710205078126	-160.9642181396485	944.153747558594	-737.6760253906251	-251.5405273437501	1062.947509765625	-1094.177612304688	-261.2494506835938	1060.638793945313	-865.8514404296877	-437.341278076172	1127.18994140625	-985.3526000976565	-450.5922241210939	1100.472534179688	-1012.613159179688	-453.349822998047	1100.61767578125	-958.0962524414065	-359.0663146972657	851.8262329101565	-1163.044677734375	-322.3977355957032	775.7852783203127	-1154.281372070313	-275.3377685546876	780.539245605469	-1141.788330078125	-349.3889465332032	722.3280639648439	-1145.126098632813	-331.0808410644532	541.9746704101564	-1124.65283203125	-331.3709716796876	525.3656005859376	-1004.549194335938	-309.6328735351563	350.2142028808594	-1063.682006835938	-354.7329101562501	307.2853088378907	-1129.074096679688	-318.4054870605469	303.0321044921876	-1100.405517578125	-325.4095764160157	225.3813781738282	-1067.313720703125	-384.7020874023439	133.835693359375	-1105.9736328125	-347.8507080078126	138.6163482666016	-1024.67822265625	-449.9257202148439	118.0859603881836	-1064.001708984375	-243.1025085449219	64.29687500000001	-1039.222534179688	-237.1868896484376	58.422420501709	-1085.184814453125	-285.6518554687501	43.86510086059571	-1136.95068359375	-357.6332397460938	795.420593261719	-787.2351684570315	-314.8264465332032	745.3661499023439	-780.5123291015627	-282.0405883789063	750.0654907226564	-783.943542480469	-333.7929382324219	663.6176147460939	-792.8374633789065	-320.2621765136719	540.3287963867189	-785.2200317382815	-298.0767517089844	515.4992675781251	-900.5122070312502	-294.9670104980469	370.7424926757813	-784.6894531250002	-382.2886047363282	302.0701904296876	-767.8043212890626	-336.4364624023438	295.6632080078126	-767.1385498046876	-317.2423095703126	244.6652069091797	-793.2593383789065	-383.1095581054688	134.0522613525391	-774.7696533203127	-353.8067932128907	146.7222747802735	-852.9677734375002	-445.085906982422	113.9607925415039	-822.8753051757815	-238.9503631591797	58.14227676391603	-843.4576416015627	-232.8066101074219	56.46279525756837	-790.3061523437502	-277.6749267578126	46.39278030395509	-739.5892944335939	-4216.563964843751	853.1605224609377	-3944.877685546876	
4	0.015	-230.8598175048829	1785.579345703125	-981.3457641601565	-404.6907958984376	1709.625610351563	-1055.364135742188	-382.1039428710938	1710.098754882813	-904.0325927734377	-431.6029357910157	1558.880859375	-996.939392089844	-438.7256164550782	1240.3388671875	-985.2687988281252	-269.9028320312501	1504.340209960938	-999.9084472656252	-356.0029907226563	1544.487548828125	-1171.761352539063	-368.0061035156251	1358.18603515625	-1267.452514648438	-327.1811523437501	1331.625122070313	-1263.909545898438	-366.9411315917969	1292.885131835938	-1290.869384765625	-363.3076477050782	1245.26513671875	-1300.007446289063	-368.3424377441407	1201.228393554688	-1225.88232421875	-200.3211669921876	1026.10400390625	-1305.53955078125	-252.1784667968751	1007.413024902344	-1354.335693359375	-145.4934692382813	1010.790283203125	-1353.312866210938	-337.9826965332032	1549.115234375	-827.8222656250002	-377.6656799316407	1337.740966796875	-731.3137207031251	-328.0726623535157	1328.370361328125	-735.4512329101564	-348.2493286132813	1274.723754882813	-719.2617187500001	-339.6781616210938	1230.95361328125	-714.6903686523439	-366.1633911132813	1204.661743164063	-796.2134399414065	-203.6236877441407	1005.782287597656	-760.7727050781251	-261.0276794433594	987.0906982421877	-713.5156250000001	-160.1694030761719	944.2982177734377	-738.8807983398439	-252.3224792480469	1063.325439453125	-1094.853271484375	-261.7757263183594	1060.603759765625	-866.3092041015627	-437.7906494140626	1127.110229492188	-986.0579223632815	-450.9804687500001	1100.2880859375	-1013.187866210938	-457.9755859375001	1100.626831054688	-959.8134765625002	-359.1537170410157	851.8416137695315	-1163.633178710938	-322.3664855957032	775.638854980469	-1154.523071289063	-275.4969482421876	780.4918212890627	-1142.193237304688	-349.5564270019532	722.3424072265626	-1145.6962890625	-331.3097534179688	541.9117431640626	-1125.022705078125	-331.8267822265626	525.3699340820314	-1004.960815429688	-309.9247741699219	350.1619262695313	-1063.862548828125	-354.9017944335938	307.2023315429688	-1129.258056640625	-318.5093078613282	303.0131530761719	-1100.5869140625	-325.4273071289063	225.4382476806641	-1067.406127929688	-384.7190551757814	133.7417449951172	-1106.005859375	-347.8498229980469	138.6011657714844	-1024.713745117188	-449.9094238281251	118.0579299926758	-1064.012451171875	-243.0904083251954	64.27706909179689	-1039.229125976563	-237.1868896484376	58.42242431640626	-1085.184814453125	-285.6012268066407	43.76215744018555	-1136.986572265625	-357.6897583007813	795.272644042969	-787.8496093750002	-314.8700561523438	745.3178710937501	-780.9890136718752	-282.0521240234376	750.0720825195314	-784.3016357421877	-333.6603393554688	663.5411376953126	-793.211364746094	-319.9122924804688	540.2974243164064	-785.518981933594	-297.6257629394532	515.4716186523439	-900.7615356445315	-294.6679077148438	370.7021789550782	-784.9328613281252	-382.2510681152344	302.1404724121094	-767.9489135742189	-336.3459167480469	295.7075500488282	-767.2263183593751	-317.1879272460938	244.6764221191407	-793.3184814453127	-383.1161804199219	134.1592864990235	-774.841979980469	-353.7122192382813	146.7419891357422	-853.0522460937502	-445.0813598632814	113.9849243164063	-822.9069824218752	-238.5092926025391	57.82005310058595	-843.3489379882815	-232.8020629882813	56.50915527343751	-790.3438720703127	-277.6827087402344	46.46437072753907	-739.6245727539064	-4216.486328125001	853.110534667969	-3944.884521484376	
